<?xml version="1.0" encoding="UTF-8"?>
<svg xmlns="http://www.w3.org/2000/svg" xmlns:xlink="http://www.w3.org/1999/xlink" width="185px" height="35px" viewBox="0 0 184 35" version="1.1">
<defs>
<clipPath id="clip1">
  <path d="M 40.914062 4.847656 L 183.746094 4.847656 L 183.746094 30.234375 L 40.914062 30.234375 Z M 40.914062 4.847656 "/>
</clipPath>
<clipPath id="clip2">
  <path d="M 0.03125 0.0429688 L 10 0.0429688 L 10 35 L 0.03125 35 Z M 0.03125 0.0429688 "/>
</clipPath>
<clipPath id="clip3">
  <path d="M 11 0.0429688 L 22 0.0429688 L 22 35 L 11 35 Z M 11 0.0429688 "/>
</clipPath>
<clipPath id="clip4">
  <path d="M 23 0.0429688 L 33 0.0429688 L 33 35 L 23 35 Z M 23 0.0429688 "/>
</clipPath>
<clipPath id="clip5">
  <path d="M 23 0.0429688 L 34 0.0429688 L 34 35 L 23 35 Z M 23 0.0429688 "/>
</clipPath>
</defs>
<g id="surface1">
<g clip-path="url(#clip1)" clip-rule="nonzero">
<path style=" stroke:none;fill-rule:nonzero;fill:rgb(3.137255%,63.921569%,84.313725%);fill-opacity:1;" d="M 52.914062 30.234375 C 50.546875 30.234375 48.460938 29.730469 46.65625 28.726562 C 44.851562 27.722656 43.445312 26.335938 42.4375 24.566406 C 41.421875 22.796875 40.917969 20.769531 40.917969 18.476562 C 40.917969 16.160156 41.421875 14.117188 42.4375 12.347656 C 43.445312 10.582031 44.851562 9.195312 46.65625 8.191406 C 48.460938 7.183594 50.546875 6.683594 52.914062 6.683594 C 55.285156 6.683594 57.371094 7.179688 59.175781 8.171875 C 60.980469 9.164062 62.386719 10.546875 63.394531 12.316406 C 64.40625 14.085938 64.914062 16.136719 64.914062 18.476562 C 64.914062 20.769531 64.40625 22.796875 63.394531 24.566406 C 62.386719 26.335938 60.980469 27.722656 59.175781 28.726562 C 57.371094 29.730469 55.285156 30.234375 52.914062 30.234375 Z M 52.914062 24.273438 C 54.285156 24.273438 55.410156 23.738281 56.292969 22.667969 C 57.171875 21.597656 57.609375 20.1875 57.609375 18.441406 C 57.609375 17.261719 57.410156 16.226562 57.011719 15.332031 C 56.605469 14.433594 56.050781 13.730469 55.347656 13.214844 C 54.636719 12.703125 53.816406 12.449219 52.882812 12.449219 C 51.511719 12.449219 50.394531 13 49.523438 14.097656 C 48.65625 15.203125 48.21875 16.652344 48.21875 18.441406 C 48.21875 20.1875 48.65625 21.597656 49.523438 22.667969 C 50.394531 23.738281 51.523438 24.273438 52.914062 24.273438 Z M 74.269531 29.710938 L 67.390625 29.710938 L 67.390625 13.300781 L 74.171875 13.300781 L 74.171875 16.871094 C 74.671875 15.648438 75.414062 14.707031 76.402344 14.054688 C 77.394531 13.398438 78.574219 13.070312 79.941406 13.070312 C 82.074219 13.070312 83.726562 13.804688 84.898438 15.277344 C 86.070312 16.753906 86.660156 18.835938 86.660156 21.519531 L 86.660156 29.710938 L 79.78125 29.710938 L 79.78125 21.160156 C 79.78125 19.21875 78.996094 18.246094 77.433594 18.246094 C 76.496094 18.246094 75.738281 18.589844 75.148438 19.273438 C 74.5625 19.964844 74.269531 20.886719 74.269531 22.046875 Z M 96.472656 29.710938 L 89.691406 29.710938 L 89.691406 7.175781 L 96.472656 7.175781 L 102.082031 18.113281 L 107.558594 7.175781 L 114.339844 7.175781 L 114.339844 29.710938 L 107.558594 29.710938 L 107.558594 17.917969 L 103.417969 25.777344 L 100.644531 25.777344 L 96.472656 17.917969 Z M 126.167969 29.972656 C 124.320312 29.972656 122.691406 29.613281 121.277344 28.890625 C 119.863281 28.171875 118.761719 27.171875 117.972656 25.890625 C 117.175781 24.617188 116.777344 23.148438 116.777344 21.488281 C 116.777344 19.785156 117.1875 18.304688 118.003906 17.046875 C 118.816406 15.792969 119.929688 14.816406 121.34375 14.117188 C 122.753906 13.417969 124.375 13.070312 126.199219 13.070312 C 128.070312 13.070312 129.710938 13.425781 131.125 14.132812 C 132.535156 14.84375 133.632812 15.824219 134.414062 17.078125 C 135.199219 18.335938 135.589844 19.808594 135.589844 21.488281 C 135.589844 23.167969 135.195312 24.648438 134.402344 25.921875 C 133.605469 27.203125 132.503906 28.195312 131.089844 28.902344 C 129.675781 29.617188 128.035156 29.972656 126.167969 29.972656 Z M 126.234375 25.058594 C 127.125 25.058594 127.859375 24.722656 128.4375 24.054688 C 129.011719 23.390625 129.296875 22.535156 129.296875 21.488281 C 129.296875 20.441406 129.015625 19.582031 128.449219 18.914062 C 127.882812 18.25 127.167969 17.917969 126.296875 17.917969 C 125.363281 17.917969 124.609375 18.25 124.035156 18.914062 C 123.457031 19.582031 123.167969 20.441406 123.167969 21.488281 C 123.167969 22.535156 123.457031 23.390625 124.035156 24.054688 C 124.609375 24.722656 125.339844 25.058594 126.234375 25.058594 Z M 149.511719 29.710938 L 141.589844 29.710938 L 135.882812 13.300781 L 143.445312 13.300781 L 146.285156 23.125 L 149.054688 13.300781 L 155.019531 13.300781 Z M 162.488281 29.972656 C 161.03125 29.972656 159.851562 29.710938 158.945312 29.1875 C 158.046875 28.660156 157.390625 27.953125 156.976562 27.054688 C 156.5625 26.160156 156.359375 25.15625 156.359375 24.042969 L 156.359375 13.300781 L 163.238281 13.300781 L 163.238281 23.09375 C 163.238281 23.59375 163.382812 23.980469 163.675781 24.253906 C 163.96875 24.527344 164.324219 24.664062 164.738281 24.664062 C 165.171875 24.664062 165.617188 24.535156 166.074219 24.273438 L 166.433594 28.824219 C 165.953125 29.195312 165.335938 29.480469 164.574219 29.675781 C 163.8125 29.875 163.117188 29.972656 162.488281 29.972656 Z M 159.8125 11.496094 C 158.8125 11.496094 157.957031 11.175781 157.238281 10.527344 C 156.519531 9.886719 156.164062 9.097656 156.164062 8.15625 C 156.164062 7.5 156.335938 6.929688 156.683594 6.441406 C 157.03125 5.945312 157.488281 5.558594 158.054688 5.273438 C 158.617188 4.992188 159.207031 4.847656 159.8125 4.847656 C 160.488281 4.847656 161.101562 5 161.652344 5.308594 C 162.207031 5.613281 162.65625 6.015625 162.988281 6.519531 C 163.328125 7.019531 163.496094 7.566406 163.496094 8.15625 C 163.496094 8.8125 163.316406 9.390625 162.957031 9.894531 C 162.601562 10.394531 162.144531 10.789062 161.585938 11.070312 C 161.035156 11.355469 160.445312 11.496094 159.8125 11.496094 Z M 178.070312 25.386719 C 178.703125 25.386719 179.367188 25.320312 180.074219 25.191406 C 180.78125 25.058594 181.503906 24.820312 182.246094 24.46875 L 183.027344 28.695312 C 182.222656 29.109375 181.347656 29.425781 180.398438 29.644531 C 179.457031 29.863281 178.375 29.972656 177.160156 29.972656 C 174.964844 29.972656 173.121094 29.613281 171.628906 28.890625 C 170.140625 28.171875 169.019531 27.175781 168.257812 25.910156 C 167.496094 24.644531 167.117188 23.179688 167.117188 21.519531 C 167.117188 19.816406 167.523438 18.332031 168.335938 17.066406 C 169.152344 15.800781 170.246094 14.816406 171.617188 14.117188 C 172.984375 13.417969 174.496094 13.070312 176.148438 13.070312 C 178.605469 13.070312 180.484375 13.839844 181.789062 15.375 C 183.09375 16.917969 183.746094 19.109375 183.746094 21.945312 L 174.027344 23.191406 C 174.746094 24.65625 176.09375 25.386719 178.070312 25.386719 Z M 173.507812 20.179688 L 178.625 19.097656 C 178.539062 18.398438 178.300781 17.878906 177.910156 17.542969 C 177.515625 17.203125 177.027344 17.035156 176.441406 17.035156 C 175.570312 17.035156 174.878906 17.332031 174.367188 17.929688 C 173.859375 18.535156 173.570312 19.28125 173.507812 20.179688 Z M 173.507812 20.179688 "/>
</g>
<g clip-path="url(#clip2)" clip-rule="nonzero">
<path style="fill-rule:nonzero;fill:rgb(3.137255%,61.960784%,80.784314%);fill-opacity:0.501961;stroke-width:1;stroke-linecap:butt;stroke-linejoin:miter;stroke:rgb(100%,100%,100%);stroke-opacity:1;stroke-miterlimit:4;" d="M 0.00511088 -0.000000000000004514 L 26.430489 -0.000000000000004514 L 26.430489 96.69395 L 0.00511088 96.69395 Z M 0.00511088 -0.000000000000004514 " transform="matrix(0.361129,0,0,0.362815,0.0294043,0.000000000000001638)"/>
</g>
<g clip-path="url(#clip3)" clip-rule="nonzero">
<path style="fill-rule:nonzero;fill:rgb(3.137255%,61.960784%,80.784314%);fill-opacity:0.74902;stroke-width:1;stroke-linecap:butt;stroke-linejoin:miter;stroke:rgb(100%,100%,100%);stroke-opacity:1;stroke-miterlimit:4;" d="M 32.22828 -0.000000000000004514 L 58.664475 -0.000000000000004514 L 58.664475 96.69395 L 32.22828 96.69395 Z M 32.22828 -0.000000000000004514 " transform="matrix(0.361129,0,0,0.362815,0.0294043,0.000000000000001638)"/>
</g>
<g clip-path="url(#clip4)" clip-rule="nonzero">
<path style=" stroke:none;fill-rule:nonzero;fill:rgb(3.137255%,61.960784%,80.784314%);fill-opacity:1;" d="M 23.308594 0 L 32.855469 0 L 32.855469 35.082031 L 23.308594 35.082031 Z M 23.308594 0 "/>
</g>
<g clip-path="url(#clip5)" clip-rule="nonzero">
<path style="fill:none;stroke-width:1;stroke-linecap:butt;stroke-linejoin:miter;stroke:rgb(100%,100%,100%);stroke-opacity:1;stroke-miterlimit:4;" d="M 64.462266 -0.000000000000004514 L 90.898461 -0.000000000000004514 L 90.898461 96.69395 L 64.462266 96.69395 Z M 64.462266 -0.000000000000004514 " transform="matrix(0.361129,0,0,0.362815,0.0294043,0.000000000000001638)"/>
</g>
</g>
</svg>
