<svg xmlns="http://www.w3.org/2000/svg" version="1.1" xmlns:xlink="http://www.w3.org/1999/xlink" xmlns:svgjs="http://svgjs.dev/svgjs" width="1500" height="284" viewBox="0 0 1500 284"><g transform="matrix(1,0,0,1,-0.9090909090911055,0.334660333899393)"><svg viewBox="0 0 396 75" data-background-color="#ffffff" preserveAspectRatio="xMidYMid meet" height="284" width="1500" xmlns="http://www.w3.org/2000/svg" xmlns:xlink="http://www.w3.org/1999/xlink"><g id="tight-bounds" transform="matrix(1,0,0,1,0.24000000000003752,-0.08837860930441366)"><svg viewBox="0 0 395.5199999999999 75.17675721860883" height="75.17675721860883" width="395.5199999999999"><g><svg viewBox="0 0 508.73287380232824 96.69520566080804" height="75.17675721860883" width="395.5199999999999"><g transform="matrix(1,0,0,1,113.21287380232825,13.363809175987221)"><svg viewBox="0 0 395.52 69.9675873088336" height="69.9675873088336" width="395.52"><g id="textblocktransform"><svg viewBox="0 0 395.52 69.9675873088336" height="69.9675873088336" width="395.52" id="textblock"><g><svg viewBox="0 0 395.52 69.9675873088336" height="69.9675873088336" width="395.52"><g transform="matrix(1,0,0,1,0,0)"><svg width="395.52" viewBox="1.3 -37.95 219.04 38.75" height="69.9675873088336" data-palette-color="#08a3d7"><path d="M19.7 0.8L19.7 0.8Q14.25 0.8 10.1-1.5 5.95-3.8 3.63-7.85 1.3-11.9 1.3-17.15L1.3-17.15Q1.3-22.45 3.63-26.5 5.95-30.55 10.1-32.85 14.25-35.15 19.7-35.15L19.7-35.15Q25.15-35.15 29.3-32.88 33.45-30.6 35.77-26.55 38.1-22.5 38.1-17.15L38.1-17.15Q38.1-11.9 35.77-7.85 33.45-3.8 29.3-1.5 25.15 0.8 19.7 0.8ZM19.7-8.3L19.7-8.3Q22.85-8.3 24.88-10.75 26.9-13.2 26.9-17.2L26.9-17.2Q26.9-19.9 25.98-21.95 25.05-24 23.43-25.18 21.8-26.35 19.65-26.35L19.65-26.35Q16.5-26.35 14.5-23.83 12.5-21.3 12.5-17.2L12.5-17.2Q12.5-13.2 14.5-10.75 16.5-8.3 19.7-8.3ZM52.45 0L41.9 0 41.9-25.05 52.3-25.05 52.3-19.6Q53.45-22.4 55.72-23.9 58-25.4 61.15-25.4L61.15-25.4Q66.05-25.4 68.75-22.03 71.45-18.65 71.45-12.5L71.45-12.5 71.45 0 60.9 0 60.9-13.05Q60.9-17.5 57.3-17.5L57.3-17.5Q55.15-17.5 53.8-15.93 52.45-14.35 52.45-11.7L52.45-11.7 52.45 0ZM86.5 0L76.1 0 76.1-34.4 86.5-34.4 95.1-17.7 103.5-34.4 113.9-34.4 113.9 0 103.5 0 103.5-18 97.15-6 92.9-6 86.5-18 86.5 0ZM132.04 0.4L132.04 0.4Q127.79 0.4 124.54-1.25 121.29-2.9 119.47-5.83 117.64-8.75 117.64-12.55L117.64-12.55Q117.64-16.45 119.52-19.33 121.39-22.2 124.64-23.8 127.89-25.4 132.09-25.4L132.09-25.4Q136.39-25.4 139.64-23.78 142.89-22.15 144.69-19.28 146.49-16.4 146.49-12.55L146.49-12.55Q146.49-8.7 144.67-5.78 142.84-2.85 139.59-1.23 136.34 0.4 132.04 0.4ZM132.14-7.1L132.14-7.1Q134.19-7.1 135.52-8.63 136.84-10.15 136.84-12.55L136.84-12.55Q136.84-14.95 135.54-16.48 134.24-18 132.24-18L132.24-18Q130.09-18 128.77-16.48 127.44-14.95 127.44-12.55L127.44-12.55Q127.44-10.15 128.77-8.63 130.09-7.1 132.14-7.1ZM167.84 0L155.69 0 146.94-25.05 158.54-25.05 162.89-10.05 167.14-25.05 176.29-25.05 167.84 0ZM187.74 0.4L187.74 0.4Q184.39 0.4 182.31-0.8 180.24-2 179.29-4.05 178.34-6.1 178.34-8.65L178.34-8.65 178.34-25.05 188.89-25.05 188.89-10.1Q188.89-8.95 189.56-8.33 190.24-7.7 191.19-7.7L191.19-7.7Q192.19-7.7 193.24-8.3L193.24-8.3 193.79-1.35Q192.69-0.5 190.94-0.05 189.19 0.4 187.74 0.4ZM183.64-27.8L183.64-27.8Q181.34-27.8 179.69-29.28 178.04-30.75 178.04-32.9L178.04-32.9Q178.04-34.4 178.84-35.52 179.64-36.65 180.94-37.3 182.24-37.95 183.64-37.95L183.64-37.95Q185.19-37.95 186.46-37.25 187.74-36.55 188.51-35.4 189.29-34.25 189.29-32.9L189.29-32.9Q189.29-31.4 188.46-30.25 187.64-29.1 186.36-28.45 185.09-27.8 183.64-27.8ZM211.64-6.6L211.64-6.6Q213.09-6.6 214.71-6.9 216.34-7.2 218.04-8L218.04-8 219.24-1.55Q217.39-0.6 215.21-0.1 213.04 0.4 210.24 0.4L210.24 0.4Q205.19 0.4 201.76-1.25 198.34-2.9 196.59-5.8 194.84-8.7 194.84-12.5L194.84-12.5Q194.84-16.4 196.71-19.3 198.59-22.2 201.74-23.8 204.89-25.4 208.69-25.4L208.69-25.4Q214.34-25.4 217.34-21.88 220.34-18.35 220.34-11.85L220.34-11.85 205.44-9.95Q207.09-6.6 211.64-6.6ZM204.64-14.55L204.64-14.55 212.49-16.2Q212.29-17.8 211.39-18.57 210.49-19.35 209.14-19.35L209.14-19.35Q207.14-19.35 205.96-17.98 204.79-16.6 204.64-14.55Z" opacity="1" transform="matrix(1,0,0,1,0,0)" fill="#08a3d7" class="wordmark-text-0" data-fill-palette-color="primary" id="text-0"></path></svg></g></svg></g></svg></g></svg></g><g><svg viewBox="0 0 96.69520566080804 96.69520566080804" height="96.69520566080804" width="96.69520566080804"><g data-palette-color="#089ece"><rect width="26.430022880620868" height="96.69520566080804" fill="#089ece" stroke="transparent" data-fill-palette-color="accent" x="0" fill-opacity="0.5"></rect><rect width="26.430022880620868" height="96.69520566080804" fill="#089ece" stroke="transparent" data-fill-palette-color="accent" x="32.23173522026935" fill-opacity="0.75"></rect><rect width="26.430022880620868" height="96.69520566080804" fill="#089ece" stroke="transparent" data-fill-palette-color="accent" x="64.4634704405387" fill-opacity="1"></rect></g></svg></g></svg></g><defs></defs></svg><rect width="100" height="75" fill="none" stroke="none" visibility="hidden"></rect></g></svg></g></svg>